PathFileType	4	(X/Y/Z)	/Users/itak/Documents/Research/Walk-IL/dataset/trc/00506_00183.trc
DataRate	CameraRate	NumFrames	NumMarkers	Units	OrigDataRate	OrigDataStartFrame	OrigNumFrames
100.000000	100.000000	4	53	mm	100.000000	368	421
Frame#	Time	RPSI			LPSI			L3			STRN			T10			C7			CLAV			RBAK			LBAK			LSHO			LUPA			LAEL			LAOL			LWTS			LWPS			LFRA			LIFD			LHPS			LHTS			RSHO			RUPA			RAEL			RAOL			RWTS			RWPS			RFRA			RIFD			RHTS			RHPS			RBHD			LFHD			RFHD			LBHD			LHIP			RHIP			RASI			LASI			LKNE			LTHI			LANK			LTIP			LTOE			LMT1			LMT5			LHEE			RKNE			RTHI			RANK			RTIP			RTOE			RMT1			RMT5			RHEE			
		X1	Y1	Z1	X2	Y2	Z2	X3	Y3	Z3	X4	Y4	Z4	X5	Y5	Z5	X6	Y6	Z6	X7	Y7	Z7	X8	Y8	Z8	X9	Y9	Z9	X10	Y10	Z10	X11	Y11	Z11	X12	Y12	Z12	X13	Y13	Z13	X14	Y14	Z14	X15	Y15	Z15	X16	Y16	Z16	X17	Y17	Z17	X18	Y18	Z18	X19	Y19	Z19	X20	Y20	Z20	X21	Y21	Z21	X22	Y22	Z22	X23	Y23	Z23	X24	Y24	Z24	X25	Y25	Z25	X26	Y26	Z26	X27	Y27	Z27	X28	Y28	Z28	X29	Y29	Z29	X30	Y30	Z30	X31	Y31	Z31	X32	Y32	Z32	X33	Y33	Z33	X34	Y34	Z34	X35	Y35	Z35	X36	Y36	Z36	X37	Y37	Z37	X38	Y38	Z38	X39	Y39	Z39	X40	Y40	Z40	X41	Y41	Z41	X42	Y42	Z42	X43	Y43	Z43	X44	Y44	Z44	X45	Y45	Z45	X46	Y46	Z46	X47	Y47	Z47	X48	Y48	Z48	X49	Y49	Z49	X50	Y50	Z50	X51	Y51	Z51	X52	Y52	Z52	X53	Y53	Z53	

369	3.68	1260.124389648438	958.1271362304688	1074.025024414062	1321.641357421875	958.3900146484375	967.7325439453125	1296.69140625	1029.840454101562	1018.387023925781	1494.7509765625	1183.893432617188	1106.915283203125	1284.288696289062	1130.196044921875	1016.714111328125	1324.715576171875	1361.799072265625	1036.067138671875	1463.375366210938	1279.747192382812	1093.715942382812	1243.51953125	1239.834594726562	1093.097534179688	1334.074951171875	1308.572387695312	945.947265625	1450.564697265625	1352.498657226562	915.50732421875	1458.70263671875	1226.748901367188	851.3084716796875	1469.212524414062	1016.939514160156	824.4906005859375	1377.652709960938	1009.190673828125	862.017578125	1555.130615234375	847.2908935546875	901.310791015625	1501.468627929688	800.1401977539062	839.7281494140625	1491.024780273438	940.0596313476562	832.2586059570312	1576.971557617188	697.850830078125	926.2561645507812	1531.234252929688	751.9005126953125	852.9444580078125	1581.774780273438	772.6171264648438	889.352294921875	1314.498168945312	1351.49267578125	1193.357055664062	1272.509155273438	1284.856811523438	1236.264526367188	1257.895141601562	1016.810668945312	1277.29345703125	1222.289672851562	999.5796508789062	1223.9208984375	1398.7265625	842.8696899414062	1286.808959960938	1320.148315429688	807.5785522460938	1313.831787109375	1262.806640625	961.7674560546875	1286.505737304688	1424.462646484375	682.7391967773438	1298.676391601562	1423.193237304688	753.4522705078125	1319.805419921875	1352.566528320312	739.6198120117188	1324.082153320312	1307.526245117188	1500.709350585938	1111.111938476562	1478.517333984375	1590.39453125	1059.365234375	1406.729614257812	1580.635620117188	1163.199340820312	1386.271850585938	1505.3642578125	973.1373901367188	1475.656860351562	882.0543212890625	905.798828125	1291.474609375	858.1769409179688	1233.880004882812	1422.027954101562	901.6972045898438	1228.391723632812	1525.307250976562	911.6654663085938	1005.682067871094	1442.618041992188	462.464111328125	919.7119750976562	1477.76171875	619.0704345703125	914.9928588867188	1286.805297851562	48.10274505615234	838.1683349609375	1392.800659179688	318.3610229492188	884.892822265625	1431.3955078125	21.31887245178223	992.9749755859375	1346.362915039062	37.98545837402344	976.3811645507812	1386.801025390625	33.71599960327148	884.332275390625	1217.144653320312	49.16363525390625	871.0868530273438	1312.73828125	467.5282592773438	1195.101928710938	1334.042358398438	720.1683349609375	1252.360961914062	1265.072509765625	36.67929458618164	1116.244506835938	1320.950439453125	323.1886596679688	1168.149169921875	1466.193115234375	27.49708938598633	1157.010131835938	1418.77880859375	33.21620559692383	1096.474609375	1362.871826171875	32.93234634399414	1175.759399414062	1234.039184570312	25.06682205200195	1054.138427734375	
370	3.69	1260.142944335938	958.0435791015625	1073.857299804688	1321.915283203125	958.318115234375	967.507568359375	1296.837524414062	1029.800048828125	1017.977661132812	1494.698120117188	1183.9052734375	1106.94775390625	1284.442138671875	1130.06982421875	1016.392272949219	1324.760375976562	1361.760131835938	1035.619018554688	1463.319702148438	1279.725219726562	1093.621704101562	1243.487915039062	1239.716064453125	1092.56689453125	1334.3037109375	1308.53857421875	945.4740600585938	1450.850708007812	1352.430053710938	915.3466796875	1459.148559570312	1226.719970703125	851.1768188476562	1469.989135742188	1016.889099121094	824.4159545898438	1378.292358398438	1009.0849609375	861.626220703125	1556.037475585938	847.7660522460938	901.814453125	1503.01220703125	800.4146118164062	839.8605346679688	1491.987915039062	940.2333374023438	832.3323974609375	1578.43115234375	698.4041748046875	926.8082275390625	1532.927856445312	752.2936401367188	853.2636108398438	1583.11328125	773.236083984375	890.0023803710938	1314.188354492188	1351.461791992188	1192.9169921875	1272.093383789062	1284.831176757812	1235.747436523438	1257.5224609375	1016.822570800781	1276.94287109375	1222.013427734375	999.5370483398438	1223.581909179688	1398.4169921875	842.9876708984375	1286.941650390625	1319.825073242188	807.7318725585938	1313.8388671875	1262.39697265625	961.7685546875	1286.198120117188	1424.08935546875	682.6649169921875	1298.787353515625	1422.818603515625	753.524658203125	1319.978637695312	1352.13720703125	739.5591430664062	1324.0751953125	1307.366943359375	1500.595336914062	1110.798950195312	1478.421875	1590.401245117188	1059.30224609375	1406.479614257812	1580.5048828125	1162.938598632812	1386.309814453125	1505.410522460938	972.9737548828125	1475.86767578125	881.9220581054688	905.8182983398438	1291.325561523438	858.1597290039062	1233.778930664062	1422.058837890625	901.8375244140625	1228.57861328125	1525.473754882812	911.5961303710938	1005.844055175781	1442.750732421875	462.4014892578125	919.6648559570312	1478.0283203125	618.9974365234375	915.0469970703125	1286.852905273438	48.04972457885742	838.0341186523438	1392.815551757812	318.3187866210938	884.7554931640625	1431.33203125	21.32605361938477	992.9437255859375	1346.3291015625	38.01426696777344	976.3319702148438	1386.794189453125	33.67286682128906	884.3031616210938	1217.155883789062	49.16964340209961	871.04638671875	1312.650024414062	467.5453491210938	1194.993286132812	1333.880004882812	720.2481079101562	1252.420166015625	1265.048583984375	36.62837982177734	1116.206787109375	1320.857666015625	323.2174377441406	1168.13037109375	1466.159545898438	27.49840545654297	1157.041625976562	1418.774536132812	33.21796035766602	1096.475952148438	1362.866577148438	32.9484748840332	1175.746948242188	1234.102294921875	25.03149223327637	1054.119018554688	
371	3.7	1260.15185546875	957.9729614257812	1073.685424804688	1322.160522460938	958.2415161132812	967.29638671875	1296.960205078125	1029.776245117188	1017.589660644531	1494.636108398438	1183.91845703125	1106.954223632812	1284.581909179688	1129.953857421875	1016.044250488281	1324.785278320312	1361.710571289062	1035.155395507812	1463.255004882812	1279.705200195312	1093.508056640625	1243.440063476562	1239.616943359375	1092.052001953125	1334.502563476562	1308.488403320312	945.0222778320312	1451.1064453125	1352.352905273438	915.1764526367188	1459.569702148438	1226.682861328125	851.0311889648438	1470.734619140625	1016.840148925781	824.3258666992188	1378.905395507812	1008.972778320312	861.2296752929688	1556.859619140625	848.1583862304688	902.2391357421875	1504.421142578125	800.65234375	839.9371337890625	1492.889770507812	940.376220703125	832.3721923828125	1579.72802734375	698.860595703125	927.248779296875	1534.461303710938	752.6331787109375	853.5051879882812	1584.318969726562	773.76318359375	890.551513671875	1313.882568359375	1351.427490234375	1192.467041015625	1271.679809570312	1284.798583984375	1235.21875	1257.176025390625	1016.833618164062	1276.59814453125	1221.752563476562	999.4947509765625	1223.247924804688	1398.131469726562	843.1234741210938	1287.085327148438	1319.539916992188	807.9000854492188	1313.844848632812	1262.022583007812	961.7631225585938	1285.8857421875	1423.745483398438	682.6377563476562	1298.929565429688	1422.456909179688	753.5930786132812	1320.138061523438	1351.73486328125	739.5492553710938	1324.10009765625	1307.192504882812	1500.483032226562	1110.48486328125	1478.312744140625	1590.41162109375	1059.222778320312	1406.219116210938	1580.389526367188	1162.669067382812	1386.325073242188	1505.438842773438	972.8209838867188	1476.034790039062	881.7879638671875	905.82763671875	1291.177734375	858.139892578125	1233.666015625	1422.075927734375	901.9772338867188	1228.7373046875	1525.62646484375	911.5263061523438	1005.97802734375	1442.854248046875	462.3428344726562	919.5839233398438	1478.25341796875	618.9277954101562	915.0609741210938	1286.884033203125	47.97733306884766	837.9212036132812	1392.816162109375	318.2795104980469	884.60302734375	1431.269409179688	21.33040809631348	992.9103393554688	1346.29443359375	38.04502105712891	976.2844848632812	1386.779052734375	33.6202278137207	884.2706909179688	1217.166870117188	49.16793823242188	871.0181274414062	1312.557495117188	467.5587158203125	1194.889038085938	1333.703979492188	720.3272705078125	1252.451171875	1265.030395507812	36.59187316894531	1116.1787109375	1320.769165039062	323.2383728027344	1168.101440429688	1466.127807617188	27.4980583190918	1157.071411132812	1418.771118164062	33.21757888793945	1096.474243164062	1362.861450195312	32.96657943725586	1175.73193359375	1234.162231445312	24.99459648132324	1054.101684570312	
372	3.71	1260.153198242188	957.9124755859375	1073.498657226562	1322.377319335938	958.1616821289062	967.0947875976562	1297.058227539062	1029.763671875	1017.234008789062	1494.567138671875	1183.93359375	1106.935791015625	1284.711791992188	1129.846069335938	1015.669006347656	1324.789306640625	1361.64794921875	1034.680786132812	1463.181762695312	1279.689086914062	1093.376342773438	1243.37451171875	1239.541748046875	1091.544921875	1334.672485351562	1308.421020507812	944.5975952148438	1451.33203125	1352.270385742188	915.0005493164062	1459.967651367188	1226.637084960938	850.8729858398438	1471.44482421875	1016.790832519531	824.2237548828125	1379.48974609375	1008.857788085938	860.828857421875	1557.595336914062	848.4658813476562	902.5844116210938	1505.689453125	800.8497924804688	839.9608154296875	1493.726806640625	940.4866943359375	832.3796997070312	1580.8623046875	699.217529296875	927.576416015625	1535.830932617188	752.9168090820312	853.6707763671875	1585.390258789062	774.1953735351562	890.9976196289062	1313.583618164062	1351.394653320312	1192.011108398438	1271.276489257812	1284.765991210938	1234.685668945312	1256.857055664062	1016.846862792969	1276.260009765625	1221.5078125	999.4593505859375	1222.917846679688	1397.8681640625	843.2713623046875	1287.228759765625	1319.293090820312	808.0761108398438	1313.848388671875	1261.688232421875	961.7554321289062	1285.5751953125	1423.444458007812	682.6843872070312	1299.121948242188	1422.11376953125	753.6682739257812	1320.286499023438	1351.376098632812	739.6177978515625	1324.178588867188	1307.00537109375	1500.375	1110.169921875	1478.192016601562	1590.427001953125	1059.1298828125	1405.94873046875	1580.2880859375	1162.3916015625	1386.31787109375	1505.449340820312	972.6741943359375	1476.1689453125	881.6544799804688	905.8284912109375	1291.023559570312	858.1190185546875	1233.53173828125	1422.080688476562	902.116943359375	1228.8681640625	1525.766967773438	911.4564208984375	1006.084045410156	1442.932373046875	462.2894897460938	919.474609375	1478.438110351562	618.8607177734375	915.0393676757812	1286.898315429688	47.88552856445312	837.8330688476562	1392.804443359375	318.2449645996094	884.4442749023438	1431.209228515625	21.3331127166748	992.875732421875	1346.258911132812	38.07536697387695	976.2396240234375	1386.756713867188	33.55921936035156	884.2349853515625	1217.179321289062	49.16070938110352	871.00146484375	1312.46142578125	467.568359375	1194.785888671875	1333.515625	720.4063720703125	1252.454345703125	1265.01904296875	36.56959915161133	1116.159912109375	1320.68701171875	323.2482299804688	1168.058227539062	1466.100463867188	27.49716567993164	1157.09765625	1418.769287109375	33.21471405029297	1096.468505859375	1362.856567382812	32.98620223999023	1175.71435546875	1234.220581054688	24.95610046386719	1054.08544921875	
